<svg width="51" height="32" viewBox="0 0 51 32" fill="none" xmlns="http://www.w3.org/2000/svg"><path d="M50.818 16.355c.002 8.393-6.785 15.2-15.163 15.201-8.375.003-15.166-6.8-15.169-15.194v-.007C20.484 7.96 27.272 1.154 35.648 1.152c8.376-.003 15.168 6.8 15.17 15.195v.008z" fill="white"/><path d="M15.212 1.156C6.885 1.21.142 7.998.142 16.355c0 8.39 6.795 15.199 15.167 15.199 3.928 0 7.51-1.501 10.205-3.96l-.001-.002h.002a15.013 15.013 0 0 0 1.54-1.628H23.95c-.416-.5-.793-1.024-1.131-1.564h5.358c.327-.523.62-1.067.884-1.628h-7.126a14.92 14.92 0 0 1-.634-1.596h8.394a15.327 15.327 0 0 0 .431-8.076h-9.27c.115-.54.26-1.074.431-1.596h8.399c-.188-.558-.406-1.1-.654-1.629h-7.098c.256-.546.546-1.08.87-1.596h5.355a15.38 15.38 0 0 0-1.177-1.627h-2.986c.463-.545.97-1.058 1.52-1.534A15.085 15.085 0 0 0 15.31 1.156h-.098z" fill="white"/><path d="M20.76 20.224l.203-1.375c-.11 0-.273.047-.416.047-.562 0-.625-.3-.588-.52l.454-2.808h.854l.206-1.522h-.805l.164-.945h-1.615c-.035.035-.953 5.322-.953 5.964 0 .953.533 1.378 1.286 1.372.589-.006 1.049-.169 1.21-.213zM21.273 17.602c0 2.287 1.506 2.83 2.79 2.83 1.184 0 1.705-.266 1.705-.266l.285-1.56s-.901.4-1.715.4c-1.734 0-1.43-1.297-1.43-1.297h3.282s.211-1.05.211-1.477c0-1.065-.53-2.365-2.302-2.365-1.625 0-2.826 1.753-2.826 3.735zm2.832-2.286c.911 0 .743 1.026.743 1.109h-1.793c0-.106.17-1.11 1.05-1.11zM34.33 20.224l.29-1.766s-.793.4-1.337.4c-1.145 0-1.604-.878-1.604-1.818 0-1.912.985-2.963 2.083-2.963.823 0 1.483.464 1.483.464l.264-1.714s-.98-.398-1.819-.398c-1.864 0-3.678 1.62-3.678 4.665 0 2.017.98 3.351 2.907 3.351.544 0 1.411-.221 1.411-.221zM11.88 13.892a5.578 5.578 0 0 0-1.957.356l-.234 1.394s.701-.284 1.76-.284c.601 0 1.04.067 1.04.557 0 .297-.053.407-.053.407s-.474-.04-.694-.04c-1.396 0-2.863.598-2.863 2.4 0 1.418.962 1.744 1.559 1.744 1.139 0 1.629-.74 1.656-.744l-.053.62h1.421l.635-4.459c0-1.89-1.646-1.95-2.218-1.95zm.346 3.628c.03.272-.171 1.549-1.144 1.549-.5 0-.632-.385-.632-.612 0-.442.24-.974 1.425-.974.274 0 .304.03.35.037zM15.609 20.392c.363 0 2.442.093 2.442-2.057 0-2.01-1.924-1.614-1.924-2.421 0-.401.313-.53.887-.53.227 0 1.103.074 1.103.074l.204-1.43s-.567-.126-1.489-.126c-1.196 0-2.407.477-2.407 2.112 0 1.855 2.021 1.667 2.021 2.448 0 .52-.565.564-1 .564-.753 0-1.43-.26-1.434-.247l-.215 1.413c.037.013.456.2 1.812.2zM47.706 12.61l-.348 2.165s-.608-.84-1.559-.84c-1.48 0-2.713 1.787-2.713 3.842 0 1.326.657 2.624 2.003 2.624.967 0 1.502-.676 1.502-.676l-.07.577h1.57l1.235-7.696-1.62.004zm-.75 4.224c0 .854-.423 1.995-1.298 1.995-.581 0-.853-.489-.853-1.256 0-1.254.562-2.083 1.27-2.083.583 0 .881.401.881 1.344zM3.136 20.308l.984-5.81.144 5.81h1.113l2.075-5.81-.92 5.81h1.653l1.274-7.704H6.902l-1.591 4.727-.083-4.726H2.872L1.58 20.308h1.556zM28.016 20.32c.47-2.679.557-4.854 1.679-4.458.197-1.036.386-1.436.6-1.875 0 0-.1-.022-.312-.022-.722 0-1.258.99-1.258.99l.142-.909h-1.503l-1.007 6.273h1.659zM38.055 13.892c-1.107 0-1.956.356-1.956.356l-.233 1.394s.7-.284 1.76-.284c.6 0 1.04.067 1.04.557 0 .297-.054.407-.054.407s-.474-.04-.695-.04c-1.397 0-2.862.598-2.862 2.4 0 1.418.962 1.744 1.558 1.744 1.14 0 1.63-.74 1.656-.744l-.052.62h1.422l.634-4.459c0-1.89-1.645-1.95-2.218-1.95zm.347 3.628c.03.272-.17 1.549-1.144 1.549-.5 0-.63-.385-.63-.612 0-.442.24-.974 1.422-.974.276 0 .305.03.352.037zM41.572 20.32c.47-2.679.557-4.854 1.68-4.458.196-1.036.385-1.436.6-1.875 0 0-.101-.022-.312-.022-.724 0-1.258.99-1.258.99l.144-.909H40.92l-1.007 6.273h1.658z" fill="#4F4F4F"/></svg>