<svg width="50" height="50" viewBox="0 0 50 50" fill="none" xmlns="http://www.w3.org/2000/svg"><g clip-path="url(#a)" fill="#828282"><path d="M49.06 25.294c-.065-.375-.38-.6-.838-.605-.14-.002-.28.012-.418-.003-.27-.028-.34.062-.339.276.013 1.05.01 2.099.005 3.146-.003.549-.539 1.113-1.183 1.256-2 .439-3.998.885-6 1.32a3.156 3.156 0 0 1-.69.072c-.1 0-.239-.076-.282-.15-.028-.049.06-.168.13-.229.09-.074.206-.133.325-.174.367-.131.74-.25 1.111-.373 1.485-.494 2.973-.982 4.456-1.479.67-.226 1.03-.672 1.041-1.235.034-1.824.017-3.648.01-5.474 0-.289-.15-.53-.495-.655-.396-.142-.744-.029-1.088.135a6103.037 6103.037 0 0 1-6.307 3.005c-.619.295-.964.722-.96 1.33.006 1.725.001 3.447.003 5.17 0 .086.01.174.036.256.207.586.744.922 1.486.922 1.48.004 2.963.002 4.443.002 1.475 0 2.945.002 4.42-.002.32 0 .615-.066.855-.264.311-.25.295-.568.295-.885.003-1.68.003-3.358.001-5.041a1.65 1.65 0 0 0-.017-.321zm-6.15-.539c.15-.387.474-.629.97-.691.328-.042.614.161.661.457.071.456-.499.986-1.062.984-.47 0-.732-.329-.569-.75zM7.612 18.087v1.579H6.431v-1.584h-.619v3.908h.637v-1.75h1.168v1.752h.628v-3.905h-.632zM23.333 28.844c-.186-.929-.892-1.493-2.02-1.586-.443-.034-.895-.006-1.374-.006V24.78h-.964v6.876c.713 0 1.402.041 2.082-.01 1.019-.077 1.796-.482 2.16-1.313.212-.482.216-.984.116-1.488zm-1.491 1.042c-.18.76-.957 1.118-1.895.896 0-.844-.004-1.674.008-2.506 0-.055.096-.145.165-.158.938-.199 1.565.113 1.728.896.058.281.06.59-.006.872zM4.306 15.98c-.341 0-.68.001-1.02 0a1.741 1.741 0 0 0-1.205.437c-1.123.994-.828 2.882.666 3.285l-1.524 2.294c.213 0 .377-.011.537.003.212.019.32-.05.419-.207.374-.607.77-1.205 1.159-1.807.179-.276.2-.284.623-.203v2.195h.716v-.34-5.36c0-.297-.001-.296-.371-.297zm-.365 3.172c-.487-.005-.995.116-1.366-.249-.425-.417-.546-.899-.39-1.428.014-.042.035-.082.052-.122.316-.727.733-.929 1.704-.808v2.607zM22.003 21.429c-1.061.354-1.794.034-1.986-.89a2.528 2.528 0 0 1 .11-1.428c.236-.638.706-.828 1.486-.617.015.004.032-.003.06-.007l.245-.308c-.645-.423-1.527-.322-2.008.212-.37.412-.515.889-.563 1.39-.053.575.018 1.133.398 1.638.398.528 1.088.776 1.799.61.5-.118.556-.17.459-.6zM5.205 30.843v-6.062H1.584c-.05 1.029-.074 2.041-.156 3.051-.073.896-.271 1.775-.667 2.621-.131.279-.288.463-.688.396-.021-.003-.047.013-.073.023v2.224h1.081v-1.468h3.915V33.1h1.05v-2.257h-.841zm-1.173-.008h-2.37c.202-.506.449-1.004.599-1.521.301-1.039.299-2.105.307-3.168.002-.164 0-.33 0-.51h1.465l-.001 5.199zM15.381 21.482c-.183.053-.359.117-.543.154-.513.104-.879-.01-1.074-.333-.229-.378-.218-.784-.204-1.209h1.935c.042-.636-.036-1.232-.439-1.774-.354-.476-.967-.552-1.454-.161a1.851 1.851 0 0 0-.445.523 2.675 2.675 0 0 0-.346 1.677c.045.359.144.724.297 1.062.222.497.735.751 1.328.688a3.81 3.81 0 0 0 .844-.205c.301-.104.31-.2.101-.422zm-1.5-2.866c.218-.271.578-.263.771.021.216.315.242.663.233 1.028h-1.348c.021-.382.094-.736.344-1.049zM17.16 24.909c-.042-.051-.095-.128-.148-.13-.32-.013-.64-.008-.992-.008v2.826h-2.07v-2.821h-1.104v6.902h1.118v-.27-2.412c0-.443 0-.443.53-.443h1.534v3.127h1.122c.005-.076.013-.141.013-.203v-6.484c0-.029.014-.065-.003-.084zM17.777 19.615c.386-.444.755-.897 1.13-1.346.046-.055.086-.113.15-.197-.12 0-.192.008-.259-.001-.274-.037-.44.052-.59.248-.329.432-.694.844-1.046 1.263-.04.047-.09.088-.186.181v-1.68h-.61v3.815h.62c0-.453-.01-.897.005-1.339.006-.152.076-.304.116-.456.12.073.17.138.215.206.32.479.634.958.956 1.434.042.063.114.148.182.157.182.023.37.008.594.008-.448-.682-.866-1.326-1.294-1.967-.08-.12-.087-.207.017-.326zM32.465 24.757c-.18-.006-.26.045-.325.182-.433.954-.877 1.903-1.317 2.854-.194.416-.393.832-.588 1.248-.02-.002-.034-.006-.053-.008v-4.259h-1.117v6.912h1.096c.697-1.506 1.394-3.018 2.097-4.543v4.54h1.262v-6.92c-.363 0-.709.01-1.055-.006zM11.316 30.693c-.343.106-.652.227-.978.294-1.06.217-1.751-.076-2.053-.844-.233-.59-.224-1.199-.234-1.842h3.456c-.048-.535-.053-1.057-.15-1.562-.123-.633-.367-1.24-.872-1.75-.447-.451-.985-.582-1.656-.4-.697.189-1.122.627-1.408 1.146-.838 1.523-.91 3.092-.268 4.674.193.478.52.894 1.064 1.16.912.449 2.387.293 3.312-.354l-.213-.522zm-2.743-4.895c.163-.229.38-.416.744-.399.356.019.567.205.71.447.316.543.369 1.125.366 1.729H8.018c.06-.639.172-1.238.555-1.777zM11.835 21.471v-3.389H9.791c0 .254.009.482-.001.711-.034.796-.063 1.593-.395 2.355-.082.188-.143.389-.46.347v1.23h.589v-.799h2.213v.795h.556v-1.232l-.46-.018zm-.646 0H9.815c.597-.924.515-1.917.559-2.908h.817v2.908zM24.367 24.772c0 2.314 0 4.611.003 6.909h1.021v-6.214h3.113v-.695h-4.137z"/></g><defs><clipPath id="a"><path fill="white" d="M0 0h49.08v49.08H0z"/></clipPath></defs></svg>